<svg width="76" height="76" fill="none" xmlns="http://www.w3.org/2000/svg">
    <path d="M59.375 67.688H41.479a78.278 78.278 0 009.287-9.02c7.959-9.152 12.172-18.762 12.172-27.793a24.938 24.938 0 10-49.876 0c0 9.03 4.207 18.64 12.172 27.793a78.278 78.278 0 009.287 9.02H16.625a1.188 1.188 0 000 2.374h42.75a1.188 1.188 0 000-2.374zm-32.39-10.62c-5.269-6.065-11.547-15.535-11.547-26.193a22.563 22.563 0 0145.124 0c0 10.658-6.278 20.128-11.548 26.193A75.591 75.591 0 0138 67.391a75.591 75.591 0 01-11.014-10.323zm21.703-26.193a10.687 10.687 0 10-21.375 0 10.687 10.687 0 0021.375 0zm-19 0a8.312 8.312 0 1116.624 0 8.312 8.312 0 01-16.624 0z"
          fill="#343330"/>
</svg>