<svg width="76" height="76" fill="none" xmlns="http://www.w3.org/2000/svg">
    <path d="M42.245 3.563h-13.24a1.187 1.187 0 00-1.128.819c-.43 1.327-10.45 32.582-1.82 44.466 1.998 2.746 4.818 4.269 8.38 4.539v16.675H28.5a1.187 1.187 0 100 2.376h14.25a1.188 1.188 0 000-2.376h-5.938V53.388c3.563-.27 6.383-1.781 8.378-4.54 8.633-11.874-1.386-43.138-1.817-44.465a1.187 1.187 0 00-1.128-.82zM29.88 5.937h11.49a135.097 135.097 0 013.458 14.25H26.422a137.152 137.152 0 013.458-14.25zM43.27 47.45c-1.767 2.425-4.267 3.612-7.645 3.612-3.379 0-5.878-1.187-7.645-3.61-3.933-5.406-3.458-15.77-1.974-24.89h19.24c1.915 11.875 1.236 20.467-1.977 24.887zm24.417-32.013a2.375 2.375 0 11-4.75 0 2.375 2.375 0 014.75 0zm-7.124-9.5a2.375 2.375 0 11-4.75 0 2.375 2.375 0 014.75 0zm0 23.75a2.375 2.375 0 11-4.75 0 2.375 2.375 0 014.75 0z"
          fill="#343330"/>
</svg>