<svg width="76" height="76" fill="none" xmlns="http://www.w3.org/2000/svg"><path d="M7.125 53.438h61.75a1.188 1.188 0 000-2.376h-3.563v-5.937a27.345 27.345 0 00-26.124-27.286v-7.151h5.937a1.188 1.188 0 000-2.376h-14.25a1.188 1.188 0 000 2.376h5.938v7.151a27.345 27.345 0 00-26.126 27.286v5.938H7.126a1.187 1.187 0 100 2.374zm5.938-8.313a24.938 24.938 0 1149.874 0v5.938H13.063v-5.938zm57 16.625a1.188 1.188 0 01-1.188 1.188H7.125a1.187 1.187 0 110-2.376h61.75a1.188 1.188 0 011.188 1.188z" fill="#343330"/></svg>