<svg width="76" height="76" fill="none" xmlns="http://www.w3.org/2000/svg"><path d="M69.929 21.173a2.725 2.725 0 00-2.375-1.88l-11.54-.976a.356.356 0 01-.297-.211L51.202 7.588a2.743 2.743 0 00-5.032 0l-4.51 10.521a.357.357 0 01-.297.21l-11.548.978a2.725 2.725 0 00-2.375 1.879 2.672 2.672 0 00.825 2.87l8.755 7.479a.323.323 0 01.107.323L34.502 42.97a2.673 2.673 0 001.037 2.8 2.74 2.74 0 003.034.145l9.921-5.896a.383.383 0 01.383 0l9.922 5.896a2.737 2.737 0 003.03-.145 2.672 2.672 0 001.037-2.8l-2.624-11.12a.329.329 0 01.11-.324l8.754-7.478a2.672 2.672 0 00.823-2.874zm-2.375 1.074l-8.743 7.479a2.69 2.69 0 00-.891 2.672l2.642 11.123a.297.297 0 01-.13.339.36.36 0 01-.416.02l-9.919-5.898a2.752 2.752 0 00-2.811 0l-9.922 5.899a.353.353 0 01-.412-.021.297.297 0 01-.13-.338L39.444 32.4a2.697 2.697 0 00-.89-2.672l-8.75-7.482a.297.297 0 01-.1-.347.332.332 0 01.297-.24l11.56-.977a2.72 2.72 0 002.283-1.639l4.51-10.521a.37.37 0 01.668 0l4.51 10.518a2.714 2.714 0 002.28 1.642l11.542.989a.339.339 0 01.311.24.297.297 0 01-.1.335h-.012zM24.59 36.465L7.965 53.09a1.188 1.188 0 01-1.68-1.68L22.91 34.785a1.188 1.188 0 111.68 1.68zm4.75 14.944a1.185 1.185 0 010 1.68L12.715 69.716a1.188 1.188 0 01-1.68-1.68L27.658 51.41a1.188 1.188 0 011.678 0h.003zm21.375 0a1.185 1.185 0 010 1.68L34.09 69.716a1.187 1.187 0 01-1.678-1.68L49.038 51.41a1.188 1.188 0 011.674 0h.003z" fill="#343330"/></svg>