<svg width="23" height="21" fill="none" xmlns="http://www.w3.org/2000/svg"><path d="M21.558 2.904c-1.78-2.17-4.973-2.865-7.53-1.799-1.431.598-2.525 1.616-3.297 2.846C9.783 2.668 8.53 1.69 6.784 1.442 3.87 1.037 1.355 3.367.817 6.136-.41 12.423 6.219 18.974 11.88 20.197c.27.057.525.021.735-.08a1.85 1.85 0 00.847-.38c4.111-3.294 12.96-10.901 8.094-16.839l.001.006zm-2.207 4.544c-.355 2.071-2.032 3.816-3.403 5.3-1.463 1.59-3.052 3.041-4.733 4.396-2.499-1.705-4.801-3.756-6.196-6.49-.786-1.546-1.687-4.451.3-5.558 2.13-1.18 3.499 2.194 4.056 3.664.682 1.81 3.217 1.637 3.396-.395.166-1.86 1.272-3.956 3.277-4.28 2.11-.341 3.648 1.296 3.297 3.359l.007.004z" fill="#4F4E4E"/></svg>